<svg xmlns="http://www.w3.org/2000/svg" width="62.33" height="65.686" viewBox="0 0 62.33 65.686">
  <g id="Group_22332" data-name="Group 22332" transform="translate(-53.706 -1104.772)">
    <g id="doctor-3" transform="translate(56.015 1104.772)">
      <path id="Path_19125" data-name="Path 19125" d="M60.908,27.853c0-10.612-6.37-14.292-14.227-14.292s-14.227,3.68-14.227,14.292,6.37,19.215,14.226,19.215S60.908,38.465,60.908,27.853Z" transform="translate(-16.671 -12.312)" fill="#ffd9cc"/>
      <path id="Path_19126" data-name="Path 19126" d="M46.431,48.066c-8.533,0-15.475-9.18-15.475-20.464,0-10.022,5.5-15.541,15.475-15.541S61.907,17.58,61.907,27.6C61.907,38.886,54.964,48.066,46.431,48.066Zm0-33.507c-8.611,0-12.977,4.389-12.977,13.043,0,9.906,5.822,17.966,12.977,17.966S59.409,37.508,59.409,27.6c0-8.654-4.367-13.043-12.978-13.043Z" transform="translate(-16.42 -12.061)"/>
      <path id="Path_19127" data-name="Path 19127" d="M36.042,56.159A28.774,28.774,0,0,0,15,83.873H72.524A28.774,28.774,0,0,0,51.834,56.259l-.786.124c-1.99,1.675-3.677,2.328-7.017,2.328-3.412,0-5.213-.679-7.2-2.418l-.786-.133Z" transform="translate(-13.752 -19.436)" fill="#61d599"/>
      <path id="Path_19128" data-name="Path 19128" d="M73.522,84.865H13.5V83.616A30.1,30.1,0,0,1,35.456,54.7l.269-.074,1.408.239.266.232c1.827,1.6,3.378,2.11,6.381,2.11,3.228,0,4.575-.656,6.212-2.034l.266-.224,1.406-.222.268.078a30.162,30.162,0,0,1,21.59,28.813v1.248Zm-57.495-2.5H70.995A27.665,27.665,0,0,0,51.5,57.281l-.171.027c-2.191,1.764-4.21,2.4-7.547,2.4-3.478,0-5.552-.658-7.752-2.494l-.168-.028A27.6,27.6,0,0,0,16.028,82.367Z" transform="translate(-13.501 -19.18)"/>
      <path id="Path_19129" data-name="Path 19129" d="M38.581,72.861a1.249,1.249,0,0,1-1.249-1.249c0-2.275-1.395-4.2-3.045-4.2s-3.045,1.922-3.045,4.2a1.249,1.249,0,0,1-2.5,0c0-3.692,2.487-6.7,5.543-6.7s5.544,3,5.544,6.7A1.249,1.249,0,0,1,38.581,72.861Zm20.564.839A1.249,1.249,0,0,1,57.9,72.3,43.01,43.01,0,0,0,57.171,58.6a1.249,1.249,0,1,1,2.443-.518A45.508,45.508,0,0,1,60.384,72.6a1.248,1.248,0,0,1-1.238,1.1Z" transform="translate(-16.05 -19.592)"/>
      <path id="Path_19130" data-name="Path 19130" d="M35.415,67.21a1.249,1.249,0,0,1-1.238-1.1c-.508-4.25-.252-5.43.282-7.312.15-.526.32-1.123.487-1.914a1.249,1.249,0,1,1,2.443.518c-.185.874-.367,1.515-.528,2.079-.436,1.536-.677,2.383-.206,6.332a1.248,1.248,0,0,1-1.241,1.4ZM59.987,79.774a3.8,3.8,0,1,1,3.8-3.8A3.8,3.8,0,0,1,59.987,79.774Zm0-5.936a2.135,2.135,0,1,0,2.135,2.134A2.137,2.137,0,0,0,59.987,73.838Z" transform="translate(-16.913 -19.387)"/>
      <path id="Path_19131" data-name="Path 19131" d="M59.192,80.255a1.444,1.444,0,1,1,1.444-1.444A1.445,1.445,0,0,1,59.192,80.255Zm0-2.054a.611.611,0,1,0,.612.61.611.611,0,0,0-.612-.61Zm-20.727.026-1.039-.693a5.069,5.069,0,0,0,.637-4.268l1.172-.433A6.3,6.3,0,0,1,38.465,78.227Zm-8.835.2c-.95-2.044-.211-5.373-.179-5.514l1.218.276c-.007.031-.677,3.055.093,4.711Z" transform="translate(-16.118 -22.225)"/>
      <ellipse id="Ellipse_1675" data-name="Ellipse 1675" cx="1.178" cy="1.178" rx="1.178" ry="1.178" transform="translate(13.082 55.409)"/>
      <ellipse id="Ellipse_1676" data-name="Ellipse 1676" cx="1.471" cy="1.471" rx="1.471" ry="1.471" transform="translate(20.343 54.706)"/>
      <path id="Path_19132" data-name="Path 19132" d="M48.5,59.694H51V83.745H48.5Z" transform="translate(-19.355 -20.028)"/>
    </g>
    <path id="Path_19133" data-name="Path 19133" d="M128.562,171.177h-4.937v4.583h-4.583V180.7h4.583v4.583h4.937V180.7h4.583V175.76h-4.583Z" transform="translate(-64.486 956.829)" fill="#61d599" stroke="#000" stroke-width="1.7"/>
  </g>
</svg>
